<svg width="2156" height="1002" viewBox="0 0 2156 1002" fill="none" xmlns="http://www.w3.org/2000/svg">
<path d="M785.816 686.455V682.96H806.783V328.603L785.816 335.593V332.098L808.181 324.41L836.138 314.625L858.504 306.936V310.431L848.719 313.926V571.132C861.3 401.292 880.87 303.442 968.935 303.442C1013.67 303.442 1033.94 339.786 1033.94 413.873V682.96H1054.9V686.455H971.032V682.96H992V415.271C992 359.356 987.806 315.324 947.268 315.324C892.053 315.324 861.3 392.905 848.719 620.756V682.96H869.687V686.455H785.816ZM1093.64 686.455V682.96H1114.61V328.603L1093.64 335.593V332.098L1116.01 324.41L1143.97 314.625L1166.33 306.936V310.431L1156.55 313.926V571.132C1169.13 401.292 1188.7 303.442 1276.76 303.442C1321.5 303.442 1341.76 339.786 1341.76 413.873V682.96H1362.73V686.455H1278.86V682.96H1299.83V415.271C1299.83 359.356 1295.64 315.324 1255.1 315.324C1199.88 315.324 1169.13 392.905 1156.55 620.756V682.96H1177.52V686.455H1093.64ZM1388.51 686.455V682.96H1409.47V335.593L1388.51 342.582V339.087L1410.87 331.399L1438.83 321.614L1461.19 313.926V317.42L1451.41 320.915V682.96H1472.38V686.455H1388.51ZM1391.3 265.001C1391.3 241.936 1406.68 230.753 1425.55 230.753C1444.42 230.753 1459.8 241.936 1459.8 265.001C1459.8 288.065 1444.42 299.248 1425.55 299.248C1406.68 299.248 1391.3 288.065 1391.3 265.001ZM1621.36 686.455C1539.58 686.455 1493.45 624.949 1493.45 494.25C1493.45 363.55 1550.77 302.044 1628.35 302.044C1698.24 302.044 1745.07 348.173 1745.07 418.765C1745.07 469.787 1720.61 483.067 1678.67 495.647L1544.48 541.777C1554.26 632.638 1592 663.39 1636.04 663.39C1666.79 663.39 1717.81 660.595 1740.87 544.572H1744.37C1723.4 663.39 1671.68 686.455 1621.36 686.455ZM1542.38 494.25C1542.38 510.325 1543.08 524.303 1544.48 537.583L1675.87 492.153C1696.84 485.163 1703.13 466.991 1703.13 418.765C1703.13 350.969 1677.97 305.539 1628.35 305.539C1581.52 305.539 1542.38 366.345 1542.38 494.25ZM1811.64 211.183C1796.96 211.183 1784.38 202.097 1784.38 183.925C1784.38 165.753 1796.96 156.667 1811.64 156.667C1826.32 156.667 1838.9 165.753 1838.9 183.925C1838.9 212.581 1808.85 239.839 1791.37 244.033V237.044C1801.16 232.151 1808.15 223.764 1812.34 211.183H1811.64ZM2017.61 692.047C1943.53 692.047 1877.13 650.111 1877.13 540.379H1946.32V543.874H1926.05C1926.75 643.82 1954.01 688.552 2017.61 688.552C2074.92 688.552 2095.19 646.616 2095.19 613.766C2095.19 522.207 1889.01 503.336 1889.01 388.012C1889.01 316.722 1946.32 302.044 2000.84 302.044C2060.25 302.044 2107.77 330.001 2116.86 382.421L2130.84 377.528V381.023L2108.47 388.711L2080.52 398.496L2058.15 406.184V402.69L2076.32 396.399C2075.62 339.786 2054.66 305.539 2000.84 305.539C1964.49 305.539 1937.93 327.205 1937.93 367.044C1937.93 483.766 2137.13 477.475 2137.13 594.895C2137.13 652.906 2084.71 692.047 2017.61 692.047Z" fill="black"/>
<path d="M5.53835 915.504V914.675H10.5142V790.61H5.53835V789.781H22.1245V803.879C25.9393 794.591 32.7396 788.952 44.5158 788.952C64.7509 788.952 76.8588 802.055 76.8588 817.977C76.8588 832.573 68.3999 841.695 56.1261 841.695C44.35 841.695 37.5496 831.08 31.9103 831.08C28.9248 831.08 27.1004 833.071 27.1004 835.559C27.1004 847.169 81.6688 835.89 81.8347 881.502C81.8347 881.668 81.8347 881.668 81.8347 881.668C81.8347 902.401 66.7413 916.499 42.8572 916.499C31.9103 916.499 30.7493 915.504 15.3242 915.504H5.53835ZM22.1245 892.781C22.1245 910.694 30.7493 914.84 42.8572 914.84C59.7751 914.84 68.5658 901.406 68.5658 881.502C68.5658 836.222 25.4417 848.496 25.4417 835.559C25.4417 831.744 28.0955 829.256 32.4079 829.256C39.8717 829.256 46.5062 837.881 53.1406 837.881C60.6044 837.881 65.2485 830.914 65.2485 819.636C65.2485 803.713 56.6237 790.61 44.5158 790.61C32.0762 790.61 25.4417 797.576 22.1245 808.855V892.781ZM127.408 916.499C103.026 916.499 88.4303 896.762 88.4303 852.808C88.4303 808.855 103.026 788.952 127.408 788.952C151.789 788.952 166.385 808.855 166.385 852.808C166.385 896.762 151.789 916.499 127.408 916.499ZM101.699 852.808C101.699 895.766 110.324 914.84 127.408 914.84C144.657 914.84 153.116 895.766 153.116 852.808C153.116 809.684 144.657 790.61 127.408 790.61C110.324 790.61 101.699 809.684 101.699 852.808ZM179.388 869.534V782.367H174.084V781.483H197.069V782.367H191.765V869.18C191.765 900.122 200.252 913.736 219.701 913.736C240.387 913.736 249.404 900.298 249.404 869.357V782.367H244.1V781.483H256.477V782.367H251.173V869.534C251.173 902.774 240.564 917.272 216.164 917.272C190.704 917.272 179.388 902.774 179.388 869.534ZM283.768 915.504V914.62H289.072V782.367H282.883C272.982 782.367 259.898 784.842 259.898 801.108H259.014V781.483H331.506V801.108H330.622C330.622 784.842 317.538 782.367 307.637 782.367H301.448V914.62H306.753V915.504H283.768ZM340.381 915.504V914.62H345.685V782.367H340.381V781.483H363.366V782.367H358.062V914.62H363.366V915.504H340.381ZM413.833 916.565H411.888C418.253 936.367 432.398 941.318 455.736 941.318V953.695C429.038 953.695 415.424 939.55 409.589 916.388C386.074 914.089 372.283 892.872 372.283 848.67C372.283 801.816 387.842 780.599 413.833 780.599C439.824 780.599 455.383 801.816 455.383 848.67C455.383 895.524 439.824 916.565 413.833 916.565ZM386.427 848.67C386.427 890.22 394.03 910.907 409.059 914.266C406.76 904.542 405.876 893.226 405.876 880.673H407.644C407.644 894.994 408.882 906.133 411.357 914.62C412.065 914.797 412.949 914.797 413.833 914.797C432.221 914.797 441.238 894.464 441.238 848.67C441.238 802.7 432.221 782.367 413.833 782.367C395.621 782.367 386.427 802.7 386.427 848.67ZM468.602 869.534V782.367H463.298V781.483H486.283V782.367H480.979V869.18C480.979 900.122 489.465 913.736 508.914 913.736C529.601 913.736 538.618 900.298 538.618 869.357V782.367H533.314V781.483H545.691V782.367H540.386V869.534C540.386 902.774 529.778 917.272 505.378 917.272C479.918 917.272 468.602 902.774 468.602 869.534ZM552.759 915.504V914.62H558.063V782.367H552.759V781.483H614.642V801.108H613.758C613.758 784.842 600.674 782.367 590.773 782.367H570.44V843.189L604.918 831.52V851.145H604.034C604.034 836.117 595.016 836.47 584.054 839.476L570.44 844.073V914.62H596.077C605.978 914.62 619.062 912.145 619.062 895.878H619.946V915.504H552.759ZM724.066 915.504V914.62H729.194C720.353 879.081 718.762 869.18 710.098 869.18C701.435 869.18 696.484 878.904 689.058 878.904C685.168 878.904 682.339 876.783 682.339 872.716C682.339 857.334 719.116 876.252 702.849 814.369L699.313 800.401L669.432 914.62H674.736V915.504H663.244V914.62H667.664L698.429 797.042L694.362 781.483H707.093L715.933 815.43C731.669 877.844 683.223 858.748 683.223 872.716C683.223 876.429 686.052 878.02 688.704 878.02C697.014 878.02 701.435 862.638 712.574 862.638C726.718 862.638 731.846 873.423 741.924 914.62H747.405V915.504H724.066ZM753.741 915.504V914.62H759.045V782.367H753.741V781.483H775.842L829.062 914.266V782.367H823.757V781.483H836.134V782.367H830.83V914.62H836.134V915.504H816.331L762.935 782.367H760.813V914.62H766.118V915.504H753.741ZM846.808 915.504V914.62H852.112V782.367H846.808V781.483H864.488V796.688C869.262 785.372 878.28 780.599 886.59 780.599C912.581 780.599 928.14 801.816 928.14 848.67C928.14 895.524 912.581 916.565 883.053 916.565C874.92 916.565 873.683 915.504 857.239 915.504H846.808ZM864.488 891.281C864.488 910.376 873.683 914.797 883.053 914.797C904.978 914.797 913.995 894.464 913.995 848.67C913.995 802.7 904.978 782.367 886.59 782.367C879.164 782.367 869.616 786.08 864.488 801.816V891.281ZM1012.12 916.565C985.419 916.565 970.567 892.165 970.567 848.67C970.567 804.998 985.773 780.599 1013 780.599C1035.28 780.599 1047.83 791.384 1048.01 811.01V811.187C1047.83 824.447 1038.82 828.867 1023.96 833.288V831.52C1031.21 829.044 1034.75 823.033 1034.75 811.01C1034.75 792.622 1026.97 782.367 1013 782.367C994.79 782.367 984.712 806.059 984.712 848.67C984.712 886.507 996.381 907.724 1017.42 907.724C1034.93 907.724 1046.77 893.403 1050.13 867.589H1051.9C1048.72 899.061 1034.39 916.565 1012.12 916.565ZM1100.52 916.565C1074.53 916.565 1058.97 895.524 1058.97 848.67C1058.97 801.816 1074.53 780.599 1100.52 780.599C1126.51 780.599 1142.07 801.816 1142.07 848.67C1142.07 895.524 1126.51 916.565 1100.52 916.565ZM1073.12 848.67C1073.12 894.464 1082.31 914.797 1100.52 914.797C1118.91 914.797 1127.93 894.464 1127.93 848.67C1127.93 802.7 1118.91 782.367 1100.52 782.367C1082.31 782.367 1073.12 802.7 1073.12 848.67ZM1194.72 916.918C1166.08 916.918 1149.99 898 1149.99 864.052H1171.38V864.937H1164.31C1164.48 897.823 1175.45 916.034 1194.72 916.034C1210.99 916.034 1221.24 905.249 1221.24 891.281C1221.24 855.389 1153.52 851.145 1153.52 807.474C1153.52 790.5 1165.37 781.129 1186.59 781.129C1208.86 781.129 1223.01 791.207 1225.84 809.418L1231.85 807.297V808.181L1224.07 811.01L1214.35 814.546L1206.57 817.375V816.491L1212.75 814.192C1212.58 793.506 1203.21 782.013 1186.59 782.013C1172.44 782.013 1164.66 789.793 1164.66 803.761C1164.66 838.062 1232.2 845.664 1232.2 885.8C1232.2 904.011 1217.88 916.918 1194.72 916.918ZM1256.04 915.504V914.62H1261.35V782.367H1255.16C1245.26 782.367 1232.18 784.842 1232.18 801.108H1231.29V781.483H1303.78V801.108H1302.9C1302.9 784.842 1289.81 782.367 1279.91 782.367H1273.73V914.62H1279.03V915.504H1256.04ZM1317.08 869.534V782.367H1311.77V781.483H1334.76V782.367H1329.45V869.18C1329.45 900.122 1337.94 913.736 1357.39 913.736C1378.08 913.736 1387.09 900.298 1387.09 869.357V782.367H1381.79V781.483H1406.37L1439.08 898.177C1432.53 869.887 1429 844.78 1429 827.099C1429 797.926 1438.02 781.483 1454.1 781.483C1476.03 781.483 1488.23 802.523 1488.23 840.006C1488.23 861.577 1486.11 888.275 1482.39 914.62H1487.17V915.504H1469.84H1464.71V914.62H1470.02C1473.73 888.275 1475.85 861.577 1475.85 840.006C1475.85 806.059 1466.84 787.141 1450.57 787.141C1437.84 787.141 1430.77 801.816 1430.77 828.16C1430.77 850.615 1435.54 881.557 1443.85 914.62H1448.62V915.504H1430.59H1426.17V914.62H1430.41L1393.28 782.367H1388.86V869.534C1388.86 902.774 1378.25 917.272 1353.85 917.272C1328.39 917.272 1317.08 902.774 1317.08 869.534ZM1497.06 915.504V914.62H1502.37V782.367H1497.06V781.483H1558.95V801.108H1558.06C1558.06 784.842 1544.98 782.367 1535.08 782.367H1514.75V843.189L1549.22 831.52V851.145H1548.34C1548.34 836.117 1539.32 836.47 1528.36 839.476L1514.75 844.073V914.62H1540.38C1550.28 914.62 1563.37 912.145 1563.37 895.878H1564.25V915.504H1497.06ZM1608.43 782.367V781.483H1631.42V782.367H1626.11V915.15V915.504C1625.94 944.501 1610.55 952.103 1599.95 952.103V951.219C1607.37 951.219 1613.74 939.55 1613.74 915.15V782.367H1608.43ZM1638.65 915.504V914.62H1643.95V782.367H1638.65V781.483H1700.53V801.108H1699.65C1699.65 784.842 1686.56 782.367 1676.66 782.367H1656.33V843.189L1690.81 831.52V851.145H1689.92C1689.92 836.117 1680.91 836.47 1669.94 839.476L1656.33 844.073V914.62H1681.97C1691.87 914.62 1704.95 912.145 1704.95 895.878H1705.84V915.504H1638.65ZM1746.97 915.504L1712.14 782.367H1706.66V781.483H1730V782.367H1724.87L1754.75 896.585L1769.78 839.299L1754.75 782.367H1749.27V781.483H1790.82V782.367H1786.4L1777.03 818.436L1797.36 896.585L1827.24 782.367H1821.94V781.483H1833.43V782.367H1829.01L1798.25 899.945L1802.31 915.504H1789.58L1770.66 842.659L1755.63 899.945L1759.7 915.504H1746.97ZM1767.48 782.367L1776.14 814.9L1784.63 782.367H1767.48ZM1839.63 915.504V914.62H1844.94V782.367H1839.63V781.483H1901.51V801.108H1900.63C1900.63 784.842 1887.55 782.367 1877.65 782.367H1857.31V843.189L1891.79 831.52V851.145H1890.91C1890.91 836.117 1881.89 836.47 1870.93 839.476L1857.31 844.073V914.62H1882.95C1892.85 914.62 1905.93 912.145 1905.93 895.878H1906.82V915.504H1839.63ZM1915.6 915.504V914.62H1920.91V782.367H1915.6V781.483H1938.59V782.367H1933.29V914.62H1958.92C1968.82 914.62 1981.91 912.145 1981.91 895.878H1982.79V915.504H1915.6ZM1988.12 915.504V914.62H1993.43V782.367H1988.12V781.483H2005.8V796.865C2010.22 786.61 2019.07 780.599 2029.67 780.599C2053.01 780.599 2067.69 794.567 2067.69 816.844C2067.69 835.586 2058.14 847.432 2043.11 847.432C2029.5 847.432 2022.25 836.117 2016.24 836.117C2013.05 836.117 2011.11 837.885 2011.11 840.891C2011.11 856.803 2065.57 836.824 2065.92 914.62H2070.16V915.504H2047.18V914.62H2051.77C2051.42 837.178 2009.34 858.218 2009.34 840.891C2009.34 836.824 2012.17 834.172 2016.77 834.172C2024.72 834.172 2031.8 843.366 2038.87 843.366C2047.88 843.366 2053.54 833.818 2053.54 818.613C2053.54 796.335 2044.35 782.367 2029.67 782.367C2018.53 782.367 2009.34 789.793 2005.8 801.816V914.62H2011.11V915.504H1988.12ZM2066.84 782.367V781.483H2090.18V782.367H2084.87L2117.76 852.206L2144.46 782.367H2139.51V781.483H2151V782.367H2146.4L2118.82 854.328V914.62H2124.12V915.504H2101.14V914.62H2106.44V856.98L2071.26 782.367H2066.84Z" fill="black"/>
<path d="M512.725 326.143C526.494 353.679 540.479 381.053 554.301 408.59C579.724 459.489 604.983 510.497 630.623 561.342C643.199 586.276 656.316 610.994 669.543 635.658C677.748 651.79 691.101 664.723 707.487 672.409C718.259 676.986 729.489 680.402 740.986 682.6C751.827 684.985 775.732 690.46 775.732 690.46H529.854C529.854 690.46 564.329 680.974 571.105 676.854C573.82 675.355 576.127 673.215 577.826 670.621C578.931 668.565 579.58 666.295 579.73 663.966C579.879 661.637 579.526 659.304 578.694 657.123C576.058 650.993 573.034 645.036 569.641 639.29C566.172 632.189 562.649 625.142 559.18 618.041C552.404 604.327 545.52 590.613 538.148 577.224C532.203 566.463 525.501 556.138 518.092 546.327C488.225 506.516 451.338 472.495 409.247 445.938C401.658 441.276 393.744 437.753 385.992 433.687C385.523 433.324 384.978 433.073 384.397 432.952C383.816 432.832 383.215 432.845 382.641 432.991C382.066 433.138 381.532 433.413 381.079 433.797C380.627 434.18 380.268 434.662 380.03 435.205C353.814 471.383 324.641 505.324 292.813 536.678C253.78 575.754 212.125 612.121 168.139 645.523C146.454 662.722 121.586 675.47 94.9616 683.034C44.2792 696.097 10.7258 663.736 2.81179 624.058C-3.20505 594.245 4.00431 567.25 18.2604 541.231C32.8671 513.785 52.6128 489.402 76.4232 469.409C103.871 446.556 135.395 429.102 169.332 417.967C233.284 396.59 302.027 394.013 367.4 410.541C373.186 412.717 379.491 413.114 385.504 411.68C389.366 409.919 392.804 407.349 395.587 404.145L423.34 376.229C426.106 373.925 428.187 370.907 429.357 367.502C429.881 362.82 428.75 358.102 426.159 354.167C386.046 275.461 305.876 118.155 305.876 118.155L253.893 213.991C235.517 247.87 217.358 281.911 198.657 315.681C242.781 208.896 298.667 104.712 348.157 0.0410156C399.544 101.731 450.967 203.421 502.426 305.111L512.725 326.143ZM372.061 429.134C371.411 428.429 371.14 427.887 370.652 427.67C369.327 426.998 367.949 426.436 366.532 425.99C350.11 421.019 333.147 418.052 316.013 417.154C271.083 413.674 225.913 419.297 183.209 433.687C138.435 449.353 101.087 474.884 73.6045 513.912C56.7465 537.871 43.8997 563.781 43.4661 593.811C42.8698 620.643 61.1372 644.168 85.7466 648.017C105.315 651.052 123.149 645.632 140.386 637.555C170.319 623.019 198.324 604.81 223.754 583.349C251.58 561.057 277.674 536.684 301.811 510.443C325.77 484.044 348.482 456.399 372.061 428.917V429.134ZM481.882 467.078C481.232 464.584 435.97 376.663 435.97 376.663C435.97 376.663 408.379 405.5 397.159 417.371C396.308 418.541 395.547 419.773 394.882 421.057C425.871 432.181 455.154 447.58 481.882 466.807V467.078Z" fill="black"/>
</svg>
